<?xml version="1.0" standalone="no"?>
<!DOCTYPE svg PUBLIC "-//W3C//DTD SVG 20010904//EN"
 "http://www.w3.org/TR/2001/REC-SVG-20010904/DTD/svg10.dtd">
<svg version="1.0" xmlns="http://www.w3.org/2000/svg"
 width="500.000000pt" height="500.000000pt" viewBox="0 0 500.000000 500.000000"
 preserveAspectRatio="xMidYMid meet">
<metadata>
Created by potrace 1.14, written by Peter Selinger 2001-2017
</metadata>
<g transform="translate(0.000000,500.000000) scale(0.100000,-0.100000)"
fill="#000000" stroke="none">
<path d="M2295 4549 c-241 -51 -424 -214 -509 -455 -88 -249 -93 -563 -11
-779 95 -252 243 -415 639 -705 87 -63 166 -122 176 -130 9 -8 32 -26 51 -40
199 -150 364 -377 394 -543 25 -136 25 -225 -1 -419 -12 -90 -101 -264 -157
-308 -12 -10 -33 -28 -47 -40 -56 -49 -193 -90 -311 -94 -184 -4 -333 52 -436
164 -29 32 -111 195 -118 235 -3 17 -7 41 -10 55 -12 56 -19 153 -19 285 l-1
140 -55 5 c-30 3 -83 4 -117 2 l-61 -4 3 -186 c2 -103 7 -200 10 -217 22 -116
30 -148 53 -215 14 -41 39 -97 54 -123 15 -26 28 -50 28 -53 0 -3 15 -24 33
-47 103 -131 234 -210 412 -248 95 -19 287 -28 332 -15 10 3 36 7 58 11 251
36 456 210 541 458 52 154 64 221 68 402 6 224 -30 372 -132 550 -71 124 -227
282 -422 428 -41 31 -79 60 -85 65 -5 4 -50 37 -100 72 -49 36 -94 70 -100 76
-5 5 -37 30 -70 55 -90 67 -235 215 -286 294 -67 101 -98 174 -126 290 -3 11
-6 80 -8 152 -8 369 133 606 398 668 88 20 266 13 340 -13 236 -84 346 -283
356 -642 1 -58 4 -106 6 -108 3 -3 66 -4 163 -3 l64 1 -3 133 c-6 298 -83 513
-239 668 -91 91 -181 140 -318 174 -123 31 -303 32 -437 4z"/>
</g>
</svg>
